<?xml version="1.0" encoding="UTF-8" standalone="no"?><!DOCTYPE svg PUBLIC "-//W3C//DTD SVG 1.1//EN" "http://www.w3.org/Graphics/SVG/1.1/DTD/svg11.dtd"><svg width="100%" height="100%" viewBox="0 0 986 485" version="1.1" xmlns="http://www.w3.org/2000/svg" xmlns:xlink="http://www.w3.org/1999/xlink" xml:space="preserve" xmlns:serif="http://www.serif.com/" style="fill-rule:evenodd;clip-rule:evenodd;stroke-linejoin:round;stroke-miterlimit:2;"><g><path d="M457.817,457.817l0,-431.402l-431.402,0l0,78.485l-26.415,0l0,-104.9l484.232,0l0,484.232l-484.232,0l0,-90.674l26.415,0l0,64.259l431.402,0Z" style="fill:#004170;"/><g><path d="M405.788,268.442c-1.515,16.098 -7.458,28.661 -17.822,37.673c-10.365,9.02 -24.155,13.526 -41.356,13.526c-12.027,0 -22.616,-2.851 -31.768,-8.546c-9.153,-5.702 -16.223,-13.806 -21.195,-24.31c-4.98,-10.504 -7.567,-22.701 -7.777,-36.585l0,-14.101c0,-14.233 2.525,-26.773 7.567,-37.619c5.043,-10.853 12.284,-19.213 21.715,-25.087c9.432,-5.873 20.332,-8.81 32.701,-8.81c16.649,0 30.059,4.514 40.214,13.526c10.162,9.02 16.066,21.785 17.721,38.303l-26.112,0c-1.251,-10.854 -4.405,-18.678 -9.486,-23.479c-5.082,-4.801 -12.524,-7.202 -22.337,-7.202c-11.405,0 -20.161,4.164 -26.275,12.501c-6.115,8.336 -9.238,20.557 -9.378,36.67l0,13.387c0,16.323 2.921,28.769 8.756,37.346c5.842,8.578 14.389,12.866 25.654,12.866c10.294,0 18.032,-2.315 23.214,-6.945c5.182,-4.631 8.469,-12.338 9.852,-23.114l26.112,0Z" style="fill:#004170;fill-rule:nonzero;"/><path d="M88.204,250.2l-61.983,0l0,46.429l72.448,0l0,20.938l-98.669,0l0,-150.909l97.947,0l0,21.147l-71.726,0l0,41.667l61.983,0l0,20.728Z" style="fill:#004170;fill-rule:nonzero;"/><path d="M135.989,317.567l0,-150.909l44.565,0c13.339,0 25.172,2.975 35.497,8.911c10.333,5.943 18.328,14.373 23.999,25.296c5.664,10.916 8.5,23.425 8.5,37.518l0,7.567c0,14.303 -2.851,26.882 -8.554,37.728c-5.703,10.845 -13.821,19.205 -24.357,25.079c-10.535,5.873 -22.616,8.81 -36.227,8.81l-43.423,0Zm26.222,-129.762l0,108.824l17.1,0c13.751,0 24.302,-4.297 31.667,-12.897c7.357,-8.608 11.102,-20.954 11.242,-37.059l0,-8.391c0,-16.377 -3.558,-28.886 -10.675,-37.525c-7.117,-8.632 -17.45,-12.952 -30.991,-12.952l-18.343,0Z" style="fill:#004170;fill-rule:nonzero;"/></g></g><path d="M677.471,285.222l-58.787,0l-12.3,35.334l-27.413,0l57.328,-151.762l23.661,0l57.431,151.762l-27.517,0l-12.403,-35.334Zm-51.387,-21.264l43.986,0l-21.993,-62.956l-21.993,62.956Z" style="fill:#004170;fill-rule:nonzero;"/><path d="M761.601,264.271l0,56.285l-26.371,0l0,-151.762l58.058,0c16.955,0 30.418,4.418 40.39,13.252c9.971,8.835 14.957,20.522 14.957,35.06c0,14.887 -4.882,26.469 -14.645,34.747c-9.763,8.279 -23.435,12.418 -41.015,12.418l-31.374,0Zm0,-21.263l31.687,0c9.38,0 16.538,-2.207 21.471,-6.619c4.934,-4.413 7.401,-10.788 7.401,-19.127c0,-8.199 -2.502,-14.749 -7.505,-19.648c-5.003,-4.898 -11.882,-7.417 -20.638,-7.556l-32.416,0l0,52.95Z" style="fill:#004170;fill-rule:nonzero;"/><path d="M898.681,264.271l0,56.285l-26.37,0l0,-151.762l58.057,0c16.955,0 30.418,4.418 40.39,13.252c9.972,8.835 14.957,20.522 14.957,35.06c0,14.887 -4.881,26.469 -14.644,34.747c-9.763,8.279 -23.435,12.418 -41.016,12.418l-31.374,0Zm0,-21.263l31.687,0c9.381,0 16.538,-2.207 21.472,-6.619c4.933,-4.413 7.4,-10.788 7.4,-19.127c0,-8.199 -2.501,-14.749 -7.504,-19.648c-5.004,-4.898 -11.883,-7.417 -20.638,-7.556l-32.417,0l0,52.95Z" style="fill:#004170;fill-rule:nonzero;"/></svg>